<?xml version="1.0" encoding="UTF-8" standalone="no"?>
<svg
   xmlns:dc="http://purl.org/dc/elements/1.1/"
   xmlns:cc="http://creativecommons.org/ns#"
   xmlns:rdf="http://www.w3.org/1999/02/22-rdf-syntax-ns#"
   xmlns:svg="http://www.w3.org/2000/svg"
   xmlns="http://www.w3.org/2000/svg"
   xmlns:sodipodi="http://sodipodi.sourceforge.net/DTD/sodipodi-0.dtd"
   xmlns:inkscape="http://www.inkscape.org/namespaces/inkscape"
   width="64mm"
   height="64mm"
   viewBox="0 0 64 64"
   version="1.1"
   id="svg1464"
   inkscape:version="1.0.1 (3bc2e813f5, 2020-09-07)"
   sodipodi:docname="node.svg">
  <defs
     id="defs1458" />
  <sodipodi:namedview
     id="base"
     pagecolor="#ffffff"
     bordercolor="#666666"
     borderopacity="1.0"
     inkscape:pageopacity="0.0"
     inkscape:pageshadow="2"
     inkscape:zoom="0.7"
     inkscape:cx="127.28622"
     inkscape:cy="247.26307"
     inkscape:document-units="mm"
     inkscape:current-layer="layer1"
     inkscape:document-rotation="0"
     showgrid="false"
     inkscape:window-width="1848"
     inkscape:window-height="1056"
     inkscape:window-x="72"
     inkscape:window-y="0"
     inkscape:window-maximized="1" />
  <metadata
     id="metadata1461">
    <rdf:RDF>
      <cc:Work
         rdf:about="">
        <dc:format>image/svg+xml</dc:format>
        <dc:type
           rdf:resource="http://purl.org/dc/dcmitype/StillImage" />
        <dc:title></dc:title>
      </cc:Work>
    </rdf:RDF>
  </metadata>
  <g
     inkscape:label="Vrstva 1"
     inkscape:groupmode="layer"
     id="layer1">
    <g
       id="g4075"
       transform="matrix(0.60430099,0,0,0.60430099,-255.94942,-98.831164)">
      <path
         stroke="none"
         fill="#578e33"
         d="m 484.1,202 h -15.2 q -6.9,0 -6.9,6.9 v 15.2 q 0,6.9 6.9,6.9 h 15.2 q 6.9,0 6.9,-6.9 v -15.2 q 0,-6.9 -6.9,-6.9 m 0,-2 q 8.9,0 8.9,8.9 v 15.2 q 0,4.4 -2.3,6.6 -2.2,2.3 -6.6,2.3 h -15.2 q -4.4,0 -6.6,-2.3 -2.3,-2.2 -2.3,-6.6 v -15.2 q 0,-4.4 2.3,-6.6 2.2,-2.3 6.6,-2.3 h 15.2"
         id="path2716" />
      <path
         stroke="none"
         fill="#71c937"
         d="m 484.1,202 q 6.9,0 6.9,6.9 v 15.2 q 0,6.9 -6.9,6.9 h -15.2 q -6.9,0 -6.9,-6.9 v -15.2 q 0,-6.9 6.9,-6.9 h 15.2"
         id="path2718" />
    </g>
  </g>
</svg>
