<?xml version="1.0" encoding="UTF-8" standalone="no"?>
<svg
   xmlns:dc="http://purl.org/dc/elements/1.1/"
   xmlns:cc="http://creativecommons.org/ns#"
   xmlns:rdf="http://www.w3.org/1999/02/22-rdf-syntax-ns#"
   xmlns:svg="http://www.w3.org/2000/svg"
   xmlns="http://www.w3.org/2000/svg"
   width="64mm"
   height="64mm"
   viewBox="0 0 64 64"
   version="1.1"
   id="svg1464">
  <defs
     id="defs1458" />
  <metadata
     id="metadata1461">
    <rdf:RDF>
      <cc:Work
         rdf:about="">
        <dc:format>image/svg+xml</dc:format>
        <dc:type
           rdf:resource="http://purl.org/dc/dcmitype/StillImage" />
        <dc:title></dc:title>
      </cc:Work>
    </rdf:RDF>
  </metadata>
  <g
     id="layer1">
    <g
       id="g4055"
       transform="matrix(0.57896688,0,0,0.57896688,-404.77261,-143.07958)">
      <path
         stroke="none"
         fill="#d3e1e7"
         d="m 755.9,264.4 q -0.65,-0.65 -1.5,-0.65 -0.85,0 -1.5,0.65 -0.65,0.65 -0.65,1.5 0,0.85 0.65,1.5 0.65,0.65 1.5,0.65 0.85,0 1.5,-0.65 0.65,-0.65 0.65,-1.5 0,-0.85 -0.65,-1.5 m 19.9,16.6 q -8.85,-8.85 -21.35,-8.85 h -0.05 q -12.5,0 -21.4,8.85 l -0.05,0.05 q -8.8,8.85 -8.8,21.35 0,12.55 8.85,21.35 l 0.05,0.05 q 8.85,8.85 21.35,8.85 h 0.05 q 12.45,0 21.3,-8.8 l 0.05,-0.1 q 8.9,-8.8 8.9,-21.35 0,-12.55 -8.9,-21.4 m -21.4,-0.4 h 0.05 q 9,0 15.4,6.35 l 0.05,0.05 q 6.25,6.4 6.25,15.4 v 0.05 q 0,9 -6.3,15.3 l -0.05,0.15 q -6.4,6.25 -15.35,6.25 h -0.05 q -9,0 -15.3,-6.35 l -0.05,-0.05 q -6.45,-6.3 -6.45,-15.3 v -0.05 q 0,-8.95 6.35,-15.3 v -0.05 l 0.1,-0.1 q 6.35,-6.35 15.35,-6.35 M 738,269.75 q -0.4,-0.75 -1.3,-1 l -1.6,0.2 q -0.75,0.45 -1,1.3 -0.2,0.9 0.2,1.65 0.45,0.75 1.3,0.95 l 1.65,-0.2 q 0.75,-0.4 0.95,-1.3 0.25,-0.85 -0.2,-1.6 m 3.55,19.9 q -5.3,5.3 -5.3,12.75 v 0.05 q 0,7.5 5.35,12.75 l 0.05,0.05 q 5.25,5.3 12.75,5.3 h 0.05 q 7.45,0 12.8,-5.2 l 0.05,-0.15 q 5.25,-5.25 5.25,-12.75 v -0.05 q 0,-7.5 -5.25,-12.85 -5.35,-5.3 -12.85,-5.3 h -0.05 q -7.5,0 -12.8,5.3 l -0.05,0.1 m 30.55,-20.9 q -0.85,0.25 -1.3,1 -0.4,0.75 -0.2,1.6 0.25,0.9 1,1.3 l 1.6,0.2 q 0.9,-0.2 1.3,-0.95 0.45,-0.75 0.2,-1.65 -0.2,-0.85 -0.95,-1.3 l -1.65,-0.2 m 12.85,13.55 q -0.75,0.45 -1,1.3 -0.2,0.9 0.2,1.65 0.45,0.75 1.3,0.95 l 1.65,-0.2 q 0.75,-0.4 0.95,-1.3 0.25,-0.85 -0.2,-1.6 -0.4,-0.75 -1.3,-1 l -1.6,0.2 m 0,-10.45 q 12.7,12.65 12.7,30.55 0,17.95 -12.7,30.55 -12.6,12.7 -30.55,12.7 -17.9,0 -30.55,-12.7 -10.95,-10.9 -12.4,-25.8 l -0.25,-4.75 q 0,-17.9 12.65,-30.55 12.65,-12.65 30.55,-12.65 17.95,0 30.55,12.65 m -64,11.25 q -0.4,0.75 -0.2,1.6 0.25,0.9 1,1.3 l 1.6,0.2 q 0.9,-0.2 1.3,-0.95 0.45,-0.75 0.2,-1.65 -0.2,-0.85 -0.95,-1.3 l -1.65,-0.2 q -0.85,0.25 -1.3,1 m -1.55,20.8 q 0.65,-0.65 0.65,-1.5 0,-0.85 -0.65,-1.5 -0.65,-0.65 -1.5,-0.65 -0.85,0 -1.5,0.65 -0.65,0.65 -0.65,1.5 0,0.85 0.65,1.5 0.65,0.65 1.5,0.65 0.85,0 1.5,-0.65 m 2.35,14.9 q -0.75,0.45 -1,1.3 -0.2,0.9 0.2,1.65 0.45,0.75 1.3,0.95 l 1.65,-0.2 q 0.75,-0.4 0.95,-1.3 0.25,-0.85 -0.2,-1.6 -0.4,-0.75 -1.3,-1 l -1.6,0.2 m 69.15,-14.25 q 0.85,0 1.5,-0.65 0.65,-0.65 0.65,-1.5 0,-0.85 -0.65,-1.5 -0.65,-0.65 -1.5,-0.65 -0.85,0 -1.5,0.65 -0.65,0.65 -0.65,1.5 0,0.85 0.65,1.5 0.65,0.65 1.5,0.65 m -6.75,15.05 q -0.4,0.75 -0.2,1.6 0.25,0.9 1,1.3 l 1.6,0.2 q 0.9,-0.2 1.3,-0.95 0.45,-0.75 0.2,-1.65 -0.2,-0.85 -0.95,-1.3 l -1.65,-0.2 q -0.85,0.25 -1.3,1 m -10.95,12.35 -1.6,0.2 q -0.75,0.45 -1,1.3 -0.2,0.9 0.2,1.65 0.45,0.75 1.3,0.95 l 1.65,-0.2 q 0.75,-0.4 0.95,-1.3 0.25,-0.85 -0.2,-1.6 -0.4,-0.75 -1.3,-1 m -35,1.5 q -0.2,-0.85 -0.95,-1.3 l -1.65,-0.2 q -0.85,0.25 -1.3,1 -0.4,0.75 -0.2,1.6 0.25,0.9 1,1.3 l 1.6,0.2 q 0.9,-0.2 1.3,-0.95 0.45,-0.75 0.2,-1.65 m 18.35,5.45 q 0,-0.85 -0.65,-1.5 -0.65,-0.65 -1.5,-0.65 -0.85,0 -1.5,0.65 -0.65,0.65 -0.65,1.5 0,0.85 0.65,1.5 0.65,0.65 1.5,0.65 0.85,0 1.5,-0.65 0.65,-0.65 0.65,-1.5"
         id="path1068" />
      <path
         stroke="none"
         fill="#9ebbc7"
         d="m 756.55,338.9 q 0,0.85 -0.65,1.5 -0.65,0.65 -1.5,0.65 -0.85,0 -1.5,-0.65 -0.65,-0.65 -0.65,-1.5 0,-0.85 0.65,-1.5 0.65,-0.65 1.5,-0.65 0.85,0 1.5,0.65 0.65,0.65 0.65,1.5 m -0.65,-74.5 q 0.65,0.65 0.65,1.5 0,0.85 -0.65,1.5 -0.65,0.65 -1.5,0.65 -0.85,0 -1.5,-0.65 -0.65,-0.65 -0.65,-1.5 0,-0.85 0.65,-1.5 0.65,-0.65 1.5,-0.65 0.85,0 1.5,0.65 m 29.05,17.9 1.6,-0.2 q 0.9,0.25 1.3,1 0.45,0.75 0.2,1.6 -0.2,0.9 -0.95,1.3 l -1.65,0.2 q -0.85,-0.2 -1.3,-0.95 -0.4,-0.75 -0.2,-1.65 0.25,-0.85 1,-1.3 m 1.6,-12.1 q 13.35,13.35 13.35,32.2 0,18.85 -13.35,32.15 -13.3,13.35 -32.15,13.35 -18.85,0 -32.2,-13.35 -11.6,-11.6 -13.05,-27.4 l -0.25,-4.75 q 0,-18.85 13.3,-32.2 13.35,-13.3 32.2,-13.3 18.85,0 32.15,13.3 m -1.6,1.65 q -12.6,-12.65 -30.55,-12.65 -17.9,0 -30.55,12.65 -12.65,12.65 -12.65,30.55 l 0.25,4.75 q 1.45,14.9 12.4,25.8 12.65,12.7 30.55,12.7 17.95,0 30.55,-12.7 12.7,-12.6 12.7,-30.55 0,-17.9 -12.7,-30.55 m -64,11.25 q 0.45,-0.75 1.3,-1 l 1.65,0.2 q 0.75,0.45 0.95,1.3 0.25,0.9 -0.2,1.65 -0.4,0.75 -1.3,0.95 l -1.6,-0.2 q -0.75,-0.4 -1,-1.3 -0.2,-0.85 0.2,-1.6 m 0.8,35.7 1.6,-0.2 q 0.9,0.25 1.3,1 0.45,0.75 0.2,1.6 -0.2,0.9 -0.95,1.3 l -1.65,0.2 q -0.85,-0.2 -1.3,-0.95 -0.4,-0.75 -0.2,-1.65 0.25,-0.85 1,-1.3 m 62.4,0.8 q 0.45,-0.75 1.3,-1 l 1.65,0.2 q 0.75,0.45 0.95,1.3 0.25,0.9 -0.2,1.65 -0.4,0.75 -1.3,0.95 l -1.6,-0.2 q -0.75,-0.4 -1,-1.3 -0.2,-0.85 0.2,-1.6"
         id="path1070" />
      <path
         stroke="none"
         fill="#71c937"
         d="m 754.4,272.15 h 0.05 q 12.5,0 21.35,8.85 l -5.9,6 -0.05,-0.05 q -6.4,-6.35 -15.4,-6.35 h -0.05 v -8.45 m 30.3,30.25 q 0,12.55 -8.9,21.35 l -0.05,0.1 -5.95,-5.95 0.05,-0.15 q 6.3,-6.3 6.3,-15.3 v -0.05 h 8.55 m -30.3,30.25 q -12.5,0 -21.35,-8.85 l 6.05,-6 q 6.3,6.35 15.3,6.35 v 8.5 M 724.15,302.4 q 0,-12.5 8.8,-21.35 l 6,6 v 0.05 q -6.35,6.35 -6.35,15.3 h -8.45"
         id="path1072" />
      <path
         stroke="none"
         fill="#eff4f5"
         d="m 738,269.75 q 0.45,0.75 0.2,1.6 -0.2,0.9 -0.95,1.3 l -1.65,0.2 q -0.85,-0.2 -1.3,-0.95 -0.4,-0.75 -0.2,-1.65 0.25,-0.85 1,-1.3 l 1.6,-0.2 q 0.9,0.25 1.3,1 m 34.1,-1 1.65,0.2 q 0.75,0.45 0.95,1.3 0.25,0.9 -0.2,1.65 -0.4,0.75 -1.3,0.95 l -1.6,-0.2 q -0.75,-0.4 -1,-1.3 -0.2,-0.85 0.2,-1.6 0.45,-0.75 1.3,-1 m -52.7,35.15 q -0.65,0.65 -1.5,0.65 -0.85,0 -1.5,-0.65 -0.65,-0.65 -0.65,-1.5 0,-0.85 0.65,-1.5 0.65,-0.65 1.5,-0.65 0.85,0 1.5,0.65 0.65,0.65 0.65,1.5 0,0.85 -0.65,1.5 m 71.5,0.65 q -0.85,0 -1.5,-0.65 -0.65,-0.65 -0.65,-1.5 0,-0.85 0.65,-1.5 0.65,-0.65 1.5,-0.65 0.85,0 1.5,0.65 0.65,0.65 0.65,1.5 0,0.85 -0.65,1.5 -0.65,0.65 -1.5,0.65 m -17.7,27.4 q 0.9,0.25 1.3,1 0.45,0.75 0.2,1.6 -0.2,0.9 -0.95,1.3 l -1.65,0.2 q -0.85,-0.2 -1.3,-0.95 -0.4,-0.75 -0.2,-1.65 0.25,-0.85 1,-1.3 l 1.6,-0.2 m -35,1.5 q 0.25,0.9 -0.2,1.65 -0.4,0.75 -1.3,0.95 l -1.6,-0.2 q -0.75,-0.4 -1,-1.3 -0.2,-0.85 0.2,-1.6 0.45,-0.75 1.3,-1 l 1.65,0.2 q 0.75,0.45 0.95,1.3"
         id="path1074" />
      <path
         stroke="none"
         fill="#5faf2b"
         d="m 775.8,281 q 8.9,8.85 8.9,21.4 h -8.55 q 0,-9 -6.25,-15.4 l 5.9,-6 m -0.05,42.85 q -8.85,8.8 -21.3,8.8 h -0.05 v -8.5 h 0.05 q 8.95,0 15.35,-6.25 l 5.95,5.95 m -42.7,-0.05 -0.05,-0.05 q -8.85,-8.8 -8.85,-21.35 h 8.45 v 0.05 q 0,9 6.45,15.3 l 0.05,0.05 -6.05,6 M 732.95,281.05 733,281 q 8.9,-8.85 21.4,-8.85 v 8.45 q -9,0 -15.35,6.35 l -0.1,0.1 -6,-6"
         id="path1076" />
      <path
         stroke="none"
         fill="#4a3c55"
         d="m 741.55,289.65 0.05,-0.1 q 5.3,-5.3 12.8,-5.3 h 0.05 q 7.5,0 12.85,5.3 5.25,5.35 5.25,12.85 v 0.05 q 0,7.5 -5.25,12.75 l -0.05,0.15 q -5.35,5.2 -12.8,5.2 h -0.05 q -7.5,0 -12.75,-5.3 l -0.05,-0.05 q -5.35,-5.25 -5.35,-12.75 v -0.05 q 0,-7.45 5.3,-12.75 m 24.65,2.35 -0.75,-0.6 q -0.6,-0.35 -1.2,-0.55 l -1.2,-0.15 q -1.95,0 -3.2,1.3 -1.4,1.3 -1.4,3.2 0,1.3 0.75,2.4 l 0.65,0.75 q 1.25,1.35 3.2,1.35 1.85,0 3.15,-1.35 1.25,-1.3 1.25,-3.15 v -0.6 q -0.2,-1.5 -1.25,-2.6"
         id="path1078" />
      <path
         stroke="none"
         fill="#594a68"
         d="m 766.2,292 q 1.05,1.1 1.25,2.6 v 0.6 q 0,1.85 -1.25,3.15 -1.3,1.35 -3.15,1.35 -1.95,0 -3.2,-1.35 l -0.65,-0.75 q -0.75,-1.1 -0.75,-2.4 0,-1.9 1.4,-3.2 1.25,-1.3 3.2,-1.3 l 1.2,0.15 q 0.6,0.2 1.2,0.55 l 0.75,0.6"
         id="path1080" />
    </g>
  </g>
</svg>
