<?xml version="1.0" encoding="UTF-8" standalone="no"?>
<svg
   xmlns:dc="http://purl.org/dc/elements/1.1/"
   xmlns:cc="http://creativecommons.org/ns#"
   xmlns:rdf="http://www.w3.org/1999/02/22-rdf-syntax-ns#"
   xmlns:svg="http://www.w3.org/2000/svg"
   xmlns="http://www.w3.org/2000/svg"
   version="1.1"
   id="svg2"
   width="64"
   height="64"
   viewBox="0 0 64 64">
  <metadata
     id="metadata8">
    <rdf:RDF>
      <cc:Work
         rdf:about="">
        <dc:format>image/svg+xml</dc:format>
        <dc:type
           rdf:resource="http://purl.org/dc/dcmitype/StillImage" />
        <dc:title></dc:title>
      </cc:Work>
    </rdf:RDF>
  </metadata>
  <defs
     id="defs6" />
  <g
     id="g10">
    <g
       id="g40"
       transform="matrix(0.14820754,0,0,0.14820754,6.9116889,4.8302167)">
      <path
         style="fill:#bbbbbb"
         d="m 105.17906,312.49839 c -2.63512,-0.81066 -6.561953,-3.41056 -10.064899,-6.66384 -3.159177,-2.934 -7.439057,-6.6206 -9.510844,-8.19244 -2.071786,-1.57184 -4.566508,-4.72184 -5.543826,-7 -2.227328,-5.19198 -6.25332,-11.16873 -9.047408,-13.43124 -1.395443,-1.12996 -2.319035,-3.29077 -2.659072,-6.22109 -0.286549,-2.46938 -1.177032,-6.23345 -1.978851,-8.3646 -0.801819,-2.13115 -1.239936,-4.09274 -0.973593,-4.35908 0.698815,-0.69882 -3.155717,-10.1135 -5.473035,-13.36787 -1.370637,-1.92488 -1.928438,-4.22884 -1.835576,-7.5817 0.144975,-5.23438 -0.961202,-8.82967 -4.024666,-13.08097 -2.726035,-3.78304 -6.271949,-14.60226 -5.886194,-17.95985 0.306735,-2.66979 0.534892,-2.77571 5.97907,-2.77571 3.113091,0 5.965552,-0.30246 6.338802,-0.67214 0.37325,-0.36967 1.096589,-2.5323 1.60742,-4.80584 0.703424,-3.13071 0.589097,-4.61869 -0.471181,-6.13245 -1.601581,-2.28657 -0.819766,-7.43276 1.717483,-11.30509 1.419658,-2.16667 1.38873,-2.82016 -0.3599,-7.60421 -1.776609,-4.86059 -1.799481,-5.45341 -0.320734,-8.31299 1.216382,-2.35222 1.298202,-3.17719 0.346573,-3.4944 -0.685147,-0.22839 -1.982127,-1.3018 -2.882176,-2.38536 -0.900049,-1.08356 -2.660485,-2.37228 -3.912079,-2.86381 -1.251594,-0.49153 -2.420868,-1.46295 -2.598387,-2.1587 -0.177519,-0.69576 -0.829058,-2.79946 -1.447865,-4.67491 -1.01737,-3.08338 -0.892129,-3.62581 1.307944,-5.66477 2.999948,-2.78025 4.200585,-7.09618 2.660223,-9.56269 C 55.51583,132.85311 55,130.88489 55,129.48882 55,127.70141 54.260425,126.66931 52.5,126 51.125,125.47723 50,124.67836 50,124.22475 50,122.68462 52.391493,121 54.577876,121 c 4.323231,0 9.001071,-2.80125 10.978258,-6.57416 1.449265,-2.76551 1.625814,-3.82168 0.693866,-4.15091 -1.966583,-0.69475 -1.460171,-2.98671 0.789928,-3.57512 1.600602,-0.41857 1.906197,-1.06628 1.418973,-3.00754 -0.348682,-1.38926 -0.14031,-2.77114 0.475223,-3.15156 0.602899,-0.37261 1.786937,-2.334201 2.631196,-4.359091 0.844259,-2.02489 3.50296,-5.490895 5.908224,-7.702232 2.492223,-2.291285 4.645492,-5.302094 5.006257,-7 2.63651,-12.408478 4.340835,-14.885477 12.528289,-18.208123 5.91476,-2.400337 15.7511,-2.540876 19.96575,-0.285264 2.23542,1.19636 3.57445,0.706905 14.52616,-5.309746 12.43353,-6.830729 13.12323,-7.007232 37.89092,-9.696633 5.44001,-0.590704 11.25179,-1.777739 12.91507,-2.637856 3.29939,-1.706181 3.97606,-1.827619 17.14557,-3.077025 9.53926,-0.905 9.04971,-1.024347 21.88315,5.334829 3.46512,1.717021 14.2477,5.954123 17.66529,6.941715 1.375,0.397338 3.98416,2.238097 5.79814,4.090575 C 244.61211,60.484336 246.65801,62 247.34457,62 c 0.68657,0 4.1524,2.458304 7.70187,5.462897 3.54946,3.004594 7.35356,5.592094 8.45356,5.75 1.51481,0.217454 2.1213,1.257475 2.5,4.287103 0.43106,3.448477 1.03196,4.259767 4.35809,5.883996 2.91102,1.421525 4.44284,3.139839 6.24023,7 1.31018,2.813802 2.38654,5.917627 2.39191,6.897389 0.005,0.979761 0.68477,2.040406 1.50977,2.356989 0.9726,0.373216 1.5,1.924296 1.5,4.411456 0,2.10972 0.92077,5.39645 2.04617,7.30384 3.06321,5.19176 3.77957,12.31693 2.76226,27.47449 -0.97488,14.52544 0.13098,27.03883 2.86786,32.45121 0.77299,1.52865 1.12644,3.23081 0.78543,3.78257 -2.30572,3.73073 -2.20457,6.8521 0.34341,10.59706 6.54385,9.61799 7.19587,11.71968 7.18013,23.14391 -0.009,6.50929 -0.49833,11.62926 -1.25,13.07818 -0.70939,1.36744 -4.0024,3.70886 -7.73526,5.5 -3.94881,1.89477 -6.96631,4.07749 -7.68809,5.56121 -1.30886,2.69057 -6.65417,5.95023 -9.86491,6.01578 -1.12915,0.0231 -3.86098,1.37153 -6.07075,2.99661 -2.20976,1.62507 -5.96862,3.39302 -8.35303,3.92876 -2.38441,0.53574 -5.47719,2.11598 -6.87285,3.51164 -2.57126,2.57125 -2.92239,4.08077 -4.74477,20.39785 -1.02429,9.17119 -5.27957,15.88346 -12.33491,19.45706 -2.98613,1.5125 -6.46173,2.75 -7.72357,2.75 -1.26184,0 -5.56865,-1.59905 -9.57069,-3.55345 -13.14241,-6.41811 -23.08549,-10.44708 -25.70251,-10.41475 -1.41565,0.0175 -3.44743,0.6925 -4.51505,1.5 -1.2559,0.94992 -4.29394,1.4682 -8.6062,1.4682 -6.16136,0 -7.03491,0.28288 -11.55887,3.74305 -2.69159,2.05868 -7.142,4.90705 -9.88979,6.32972 -4.21716,2.18343 -5.08353,3.12516 -5.55747,6.04092 -0.30881,1.89983 -0.88262,3.97387 -1.27514,4.60897 -1.11673,1.80692 -10.50232,6.86989 -17.84049,9.6239 -7.655,2.87292 -18.47765,3.35888 -25.65185,1.15183 z m 16.1199,-13.45602 c 3.13562,-2.75311 3.44654,-3.59097 4.49627,-12.11672 0.62024,-5.0375 1.76477,-10.13137 2.54341,-11.31972 0.868,-1.32474 4.15589,-3.05898 8.49857,-4.48268 3.89558,-1.27712 7.60596,-2.95231 8.24528,-3.72264 1.78947,-2.15618 5.31955,-1.66601 7.91751,1.09939 1.29175,1.375 3.21503,2.5 4.27397,2.5 1.7913,0 20.3609,-4.66801 21.6471,-5.44163 1.74873,-1.05182 13.01324,1.95253 18.76842,5.00572 6.40204,3.39635 6.96557,3.51215 14.76804,3.03471 4.46161,-0.27302 8.77137,-0.76973 9.57724,-1.10381 C 224.38734,271.51972 231,260.61668 231,257.71301 231,254.42709 235.50964,244 236.93078,244 c 0.57246,0 2.21929,-1.78076 3.65962,-3.95723 1.84199,-2.78345 3.99668,-4.48218 7.26418,-5.72701 3.36476,-1.28188 7.64834,-4.7375 15.53811,-12.53478 7.51235,-7.4243 12.52361,-11.51168 16.14815,-13.17105 7.03667,-3.22149 7.66886,-5.8732 3.50074,-14.68389 -1.672,-3.53432 -3.04206,-6.87604 -3.04458,-7.42604 -0.003,-0.55 -2.70288,-6.29641 -6.00079,-12.76979 C 270.69829,167.25682 268,160.76821 268,159.31106 c 0,-1.45714 1.43013,-5.16073 3.17807,-8.2302 2.31623,-4.06744 3.50184,-7.88589 4.37204,-14.08086 1.32311,-9.41932 0.59599,-12.83256 -3.51447,-16.49764 C 268.8139,117.62971 267,113.64479 267,109.43964 c 0,-2.19455 -1.27253,-6.0472 -3.17858,-9.623309 -2.58229,-4.844873 -4.0838,-6.422336 -8.00397,-8.408835 -5.22996,-2.650223 -10.33447,-8.731696 -13.99057,-16.668262 -1.87884,-4.078529 -2.77512,-4.91748 -6.25438,-5.854348 -5.08658,-1.369673 -10.80272,-4.252435 -12.50922,-6.308642 -0.71661,-0.863462 -3.38651,-2.200869 -5.93311,-2.972016 -2.54659,-0.771146 -6.88017,-2.420236 -9.63017,-3.664645 -3.78392,-1.712271 -6.96608,-2.284089 -13.08369,-2.351072 -7.35314,-0.08051 -8.45954,0.171844 -12.24262,2.792374 -3.70506,2.566493 -4.6781,2.802498 -8.91631,2.162598 -17.58887,-2.65563 -32.4296,-1.693228 -38.29512,2.483389 -8.43646,6.007289 -15.64593,9.231606 -22.33702,9.989858 -4.67108,0.529339 -7.71628,1.464772 -9.5,2.91824 -1.44388,1.176545 -3.924249,2.90999 -5.511926,3.852101 -5.702208,3.38363 -7.640273,5.820433 -10.10754,12.708597 C 85.605182,95.801776 85,99.468435 85,105.67757 85,113.63202 84.91505,113.9243 82,116 c -1.65,1.1749 -3,2.78736 -3,3.58324 0,0.79588 -1.316987,3.80274 -2.926639,6.68191 -2.509665,4.48901 -2.844887,5.94723 -2.352845,10.23485 0.411675,3.58731 1.345089,5.79508 3.303666,7.81406 1.50143,1.54773 3.400314,4.24773 4.219742,6 2.474351,5.29116 5.756501,16.01635 5.756282,18.80999 -2.05e-4,2.61633 -3.942299,10.7631 -6.857656,14.1721 -1.284349,1.50182 -1.356067,2.65427 -0.43766,7.0328 1.191357,5.67983 0.843293,13.01593 -0.895545,18.87533 -0.906087,3.05326 -0.810185,4.14549 0.545686,6.21481 3.183287,4.85831 1.213656,7.04988 -6.355031,7.0711 -3.386218,0.009 -3.490705,0.12359 -3.214083,3.50981 0.157254,1.925 0.274131,5.075 0.259726,7 -0.04512,6.02988 2.628103,11.18709 7.989694,15.41378 5.697603,4.49157 6.05912,6.20404 3.005692,14.23764 -2.191641,5.76623 -1.696673,9.42831 1.890757,13.98899 1.137518,1.44612 2.069896,3.58112 2.071952,4.74445 0.01069,6.05189 8.349715,13.1073 20.879622,17.66565 9.79653,3.56395 11.34815,3.56313 15.4156,-0.008 z"
         id="path16" />
      <path
         style="fill:#f3f3f3"
         d="m 181,360.01866 c -0.825,-0.55405 -4.16993,-1.76733 -7.43317,-2.69618 -4.1366,-1.17744 -7.05902,-2.81467 -9.65128,-5.40693 -4.9129,-4.9129 -6.70394,-5.34853 -16.02698,-3.89822 -7.73674,1.20355 -7.97646,1.17666 -13.23746,-1.48517 -2.94692,-1.491 -7.61913,-4.42228 -10.38269,-6.51394 -4.7104,-3.56516 -5.65327,-3.86298 -15.07534,-4.76168 C 99.171122,334.30062 99.114324,334.27991 89.321197,328.01082 73.820166,318.08779 67,310.73135 67,303.93449 67,301.60794 66.165045,300.07175 63.847757,298.13483 54.062155,289.95546 51,284.94059 51,277.09414 c 0,-3.43019 -3.171173,-10.48778 -5.297808,-11.79051 -0.721532,-0.442 -2.343805,-2.50311 -3.605052,-4.58026 -2.152508,-3.54496 -2.222781,-4.18086 -1.145599,-10.3665 1.255211,-7.20795 1.461228,-6.68105 -5.277055,-13.49628 -2.134884,-2.15926 -2.74595,-3.62572 -2.5,-5.99961 0.322977,-3.11735 -0.440486,-4.03053 -4.381785,-5.24106 -2.23605,-0.68678 -6.787498,-7.96129 -8.464606,-13.52885 -0.730452,-2.42491 -1.325564,-6.69991 -1.322471,-9.5 0.0053,-4.79662 0.317488,-5.41497 5.397838,-10.69133 2.965718,-3.08014 5.550687,-6.45514 5.744376,-7.5 0.193689,-1.04486 1.80402,-2.57474 3.578513,-3.39974 1.774494,-0.825 3.088649,-1.94504 2.920345,-2.48897 -0.168304,-0.54393 -2.211046,-1.89393 -4.539426,-3 -3.768869,-1.79035 -4.174374,-2.3128 -3.695345,-4.76103 0.582621,-2.97766 -0.329736,-3.39954 -3.584673,-1.65755 -1.724743,0.92306 -2.565776,0.58408 -5.423855,-2.18608 -2.116134,-2.05104 -3.597589,-4.61288 -3.956833,-6.84245 C 15.13073,158.10376 13.808859,153.8 12.509073,150.5 11.209287,147.2 9.8561241,143.48256 9.5020443,142.23903 9.1479645,140.9955 7.5401537,139.29644 5.9291314,138.46335 3.0867826,136.99352 1.9747102,135 3.9971192,135 c 0.5484155,0 2.7404559,-1.575 4.8712008,-3.5 2.195273,-1.9833 4.93043,-3.5 6.311751,-3.5 4.446634,0 5.998268,-2.00732 5.033239,-6.51141 -0.786516,-3.67091 -0.570188,-4.347 2.716054,-8.48859 4.496795,-5.66722 4.470145,-5.64857 11.070636,-7.74762 3.976446,-1.26456 6.984782,-3.20383 10.860032,-7.000727 C 47.80805,95.363244 50.631688,93 51.134783,93 c 1.33088,0 2.962306,-4.795256 3.462563,-10.177518 0.36788,-3.958026 0.138303,-4.771608 -1.492514,-5.289209 -2.616683,-0.830504 -6.685801,-6.348954 -7.536087,-10.22028 -0.473004,-2.153574 -0.164145,-4.194723 0.96519,-6.378616 1.28896,-2.492574 1.420306,-3.739391 0.586668,-5.569026 -0.721487,-1.583493 -0.75345,-3.200838 -0.09736,-4.926488 C 47.56046,49.025879 48,46.346832 48,44.485426 c 0,-3.002869 0.704533,-3.893713 6.25,-7.902777 7.383091,-5.337565 11.930197,-10.620159 15.346725,-17.829035 1.369425,-2.889488 3.698721,-6.9843 5.176214,-9.0995822 l 2.686352,-3.8459681 7.036476,0.6593717 C 91.165074,7.0924006 91.657904,6.9930468 93.940435,4.5634036 97.864718,0.3861963 103.96439,1.5506841 109.5,7.5338792 c 1.87373,2.0252338 8.98514,6.1108928 16.5,9.4796068 4.125,1.84913 8.71213,4.627558 10.19363,6.174284 1.4815,1.546727 3.6424,2.81223 4.80202,2.81223 1.44686,0 2.43883,0.947903 3.16155,3.021109 1.9662,5.640225 6.63446,6.483937 10.85817,1.962435 2.79427,-2.991277 2.85397,-3.004612 7.15121,-1.597488 4.56378,1.494399 12.43732,1.594813 14.71415,0.187655 0.74081,-0.457842 5.32422,-0.938531 10.18536,-1.068199 7.91046,-0.211006 9.34218,-0.554715 13.63618,-3.273595 3.8951,-2.466307 6.31326,-3.166503 12.8532,-3.721737 6.81658,-0.578722 8.26591,-0.430326 9.42385,0.964901 1.3995,1.686301 8.52164,6.502192 15.32784,10.364484 5.19031,2.945327 9.41891,2.855754 10.82455,-0.229293 C 250.53955,29.520397 253.98178,28 259.56952,28 c 4.0845,0 4.90384,0.449183 9.3803,5.142477 2.69768,2.828362 5.1918,6.28563 5.54247,7.682816 0.35067,1.397187 1.63518,3.725918 2.85447,5.174958 1.21928,1.449041 3.39324,5.079273 4.831,8.067184 9.55947,19.866114 11.42566,23.226048 13.86513,24.963107 1.4813,1.054778 4.33479,5.239943 6.34108,9.300368 2.56633,5.193849 5.5658,9.224338 10.11716,13.59479 8.64408,8.30046 14.52495,19.38298 15.62344,29.44241 1.14366,10.47298 2.72501,20.57949 3.38787,21.65202 0.31903,0.5162 0.0934,1.84784 -0.50138,2.9592 -0.92243,1.72359 -0.77857,2.02067 0.97851,2.02067 2.74855,0 4.0181,3.61002 3.97922,11.3151 -0.0242,4.78705 -0.58802,7.08894 -2.49488,10.1849 -1.38388,2.24687 -2.46591,5.53689 -2.46879,7.5066 -0.003,1.92863 -0.47542,5.07863 -1.05023,7 -1.55259,5.18971 -1.30857,15.93816 0.4058,17.8748 0.78806,0.89023 1.59578,2.5073 1.79493,3.59348 0.19915,1.08619 1.37858,2.48166 2.62095,3.10105 1.24237,0.61938 2.54812,1.41543 2.90168,1.76898 1.02221,1.02221 -2.79432,4.65509 -4.89042,4.65509 -1.0462,0 -3.94763,0.51505 -6.44762,1.14455 -5.70615,1.43683 -8.7105,5.56582 -7.89867,10.85545 0.97954,6.38244 -1.32937,14.58873 -5.41869,19.25904 -2.04236,2.33253 -4.30472,5.36596 -5.02746,6.74096 -0.72274,1.375 -4.03298,5.45529 -7.35609,9.06731 l -6.04202,6.56732 -0.34481,10.43268 c -0.18964,5.73798 -0.43653,13.83797 -0.54864,17.99999 -0.15616,5.79746 -0.63024,7.99468 -2.02704,9.39464 -1.42385,1.42707 -1.75242,3.04469 -1.5,7.38494 0.29441,5.0624 0.10045,5.67745 -2.17679,6.9027 -1.70657,0.9182 -4.44101,1.16691 -8.61585,0.78365 -6.84116,-0.62803 -7.94717,0.0319 -9.01676,5.3798 -0.83772,4.18863 -3.4607,5.71322 -11.09796,6.45065 -9.28471,0.89649 -10.67169,0.10522 -27.25071,-15.54641 -7.39055,-6.97714 -9.04888,-7.57978 -13.42145,-4.87738 -5.6438,3.48805 -5.92158,4.26204 -3.37045,9.39117 2.20803,4.43929 2.40769,4.57169 6.96648,4.61961 5.10789,0.0537 7.8067,2.36965 7.8067,6.69926 0,4.70028 -8.33454,8.15028 -11.92126,4.93468 -0.86831,-0.77846 -3.22407,-1.72063 -5.23503,-2.09371 -2.87734,-0.53381 -3.99363,-0.28553 -5.2397,1.16539 -9.91609,11.54624 -9.29199,11.07393 -15.37177,11.63325 -3.15273,0.29004 -6.63224,0.7994 -7.73224,1.13191 -1.1,0.33251 -2.675,0.15125 -3.5,-0.40279 z"
         id="path26" />
      <path
         style="fill:#ebebeb"
         d="m 175.52252,347.25326 c -3.93993,-0.20046 -7.64028,-0.9407 -8.5,-1.70039 -0.83738,-0.73995 -4.4002,-2.70614 -7.91737,-4.3693 -5.19038,-2.45437 -6.881,-2.83909 -8.976,-2.04257 -3.22325,1.22548 -14.78421,1.47946 -18.12915,0.39828 -1.375,-0.44444 -4.3,-2.0751 -6.5,-3.62369 -4.18023,-2.94248 -15.28819,-6.04525 -18.56983,-5.18708 -3.99643,1.04509 -9.017632,-0.99517 -17.573499,-7.14062 -14.140164,-10.15651 -18.238647,-14.23354 -19.552103,-19.44974 -0.874284,-3.4721 -2.596842,-5.96267 -7.391454,-10.687 -6.20693,-6.11593 -6.251153,-6.19955 -6.201495,-11.72581 0.03594,-3.99988 -0.549522,-6.53601 -2.080802,-9.01367 C 52.958868,270.81541 52,268.57986 52,267.74377 c 0,-0.83609 -2.075297,-3.62525 -4.611771,-6.19812 -4.125734,-4.18493 -4.539138,-5.01349 -3.922601,-7.8618 2.100455,-9.70376 2.006491,-10.40171 -2.070162,-15.37673 -3.182771,-3.88415 -3.867433,-5.49717 -3.880093,-9.14127 -0.01627,-4.68276 -0.09827,-4.77551 -6.8884,-7.79067 -2.778787,-1.23392 -4.269188,-2.73062 -5.275226,-5.2975 -0.771209,-1.96772 -1.783627,-4.26745 -2.249817,-5.1105 C 20.472274,206.21174 21.223478,198 24.288158,198 c 1.756179,0 6.050202,-4.64166 8.159734,-8.82034 0.921918,-1.82618 3.22329,-4.23313 5.114161,-5.34877 C 41.787785,181.33764 41.898328,179.23483 38,175.5 36.35,173.9192 35,172.13754 35,171.54075 35,169.57327 28.890674,163 27.062055,163 21.614124,163 15.593054,152.14529 14.442701,140.25 13.776291,133.35894 13.844073,133 15.811773,133 c 1.138606,0 2.348308,0.45 2.688227,1 0.339919,0.55 1.657225,1 2.927348,1 1.944468,0 2.415777,-0.67145 2.983182,-4.25 0.370627,-2.3375 0.633705,-7.19859 0.584617,-10.80243 -0.06986,-5.12891 0.301161,-6.89592 1.707801,-8.13349 C 29.360979,109.47553 36.633008,106 38.868049,106 41.445071,106 54.122935,93.576011 56.725648,88.5 59.543085,83.005218 61.393389,76.467538 60.666906,74.574353 60.331802,73.701087 58.906223,73 57.465643,73 c -3.793983,0 -6.020791,-1.511819 -7.505151,-5.09538 -1.233435,-2.977776 -1.154805,-3.28764 1.285321,-5.065147 2.277411,-1.658979 2.488475,-2.279159 1.705171,-5.010381 -0.675748,-2.356198 -0.482149,-3.814182 0.793137,-5.973069 1.584414,-2.682199 1.583179,-3.031938 -0.02029,-5.746399 -1.657398,-2.80575 -1.641751,-2.931262 0.534392,-4.286793 1.232979,-0.768028 3.393442,-1.893601 4.80103,-2.501273 1.697801,-0.73296 2.952546,-2.417564 3.727681,-5.004734 0.642637,-2.144932 2.528475,-5.20288 4.19075,-6.795441 C 68.639957,25.928822 70,24.012662 70,23.263249 70,21.23755 72.65905,16.470935 75.497822,13.40785 76.87402,11.922907 78,10.353989 78,9.9213649 c 0,-2.038023 4.552071,-1.815298 11.088559,0.5425441 4.854653,1.75117 8.891474,2.522262 12.574491,2.40191 4.20158,-0.137297 6.09251,0.316671 8.38793,2.013752 1.62992,1.205054 5.54774,2.656619 8.70626,3.225699 6.24813,1.125746 12.29312,4.515767 14.75657,8.275466 0.85931,1.311477 2.83064,2.638154 4.38072,2.94817 1.8971,0.37942 3.21804,1.528657 4.04117,3.515863 1.91208,4.616175 7.46023,5.623484 14.08026,2.556379 4.23789,-1.963444 6.19799,-2.280029 11.5644,-1.867823 4.88007,0.37485 7.25194,0.08134 9.69063,-1.199165 2.08789,-1.096313 5.87948,-1.750586 10.72901,-1.851384 7.14628,-0.148535 14.00225,-2.059367 15.37847,-4.286144 0.38274,-0.619282 3.80105,-0.795084 8.87208,-0.456287 6.69472,0.447277 8.78219,0.994841 11.07618,2.905402 1.55469,1.294839 3.60219,2.354253 4.55,2.354253 0.9478,0 2.15077,0.395639 2.67327,0.879198 0.5225,0.483558 2.6015,1.406577 4.62001,2.051152 2.0185,0.644575 4.16444,1.767709 4.76874,2.495852 1.57201,1.894158 10.13367,0.853769 12.06125,-1.465648 0.825,-0.992708 3.44685,-2.316534 5.82633,-2.941836 5.2916,-1.390577 6.6787,-0.499961 8.33228,5.349909 0.6423,2.272255 2.83063,5.931373 4.86297,8.131373 4.1242,4.46444 9.97842,12.854281 9.97842,14.300348 0,0.516999 1.7076,4.572855 3.79467,9.013013 2.72953,5.806971 5.13849,9.255898 8.58219,12.28716 2.92616,2.575712 5.68488,6.243229 7.09557,9.433064 1.26943,2.870405 5.21791,8.389729 8.77439,12.265165 4.48403,4.88616 6.63666,8.0958 7.02192,10.4699 0.30557,1.883 1.93154,5.40538 3.61327,7.8275 2.4265,3.49478 3.15399,5.74562 3.52423,10.90385 0.25659,3.575 0.77938,8.88296 1.16175,11.79547 0.6144,4.67997 0.4286,5.57926 -1.59855,7.73706 -2.13699,2.27472 -2.20784,2.73296 -1.03654,6.70454 0.69148,2.34461 2.13864,5.21769 3.21593,6.38461 2.64174,2.86156 2.64056,10.16798 -0.003,17.87832 -1.76613,5.15139 -1.97261,7.49295 -1.45984,16.55571 0.66158,11.69286 -0.36462,16.75762 -4.24365,20.94429 -1.27396,1.375 -3.46556,4.975 -4.87021,8 -2.05827,4.4326 -2.43527,6.40962 -1.9426,10.18703 0.48296,3.70293 0.18403,5.38263 -1.42375,8 -1.11929,1.82213 -3.24927,6.35774 -4.73329,10.07912 C 303.52136,263.6668 300.24959,267 295.93657,267 292.93453,267 290,269.25583 290,271.56356 c 0,0.78138 -1.6875,2.21259 -3.75,3.18045 -4.95783,2.32656 -5.31363,5.38396 -1.31358,11.28794 4.99864,7.37787 3.49258,16.29416 -2.89543,17.14177 -1.4311,0.18989 -2.69049,1.16231 -3.01278,2.32628 -1.09339,3.94885 -6.52944,11.46416 -9.00419,12.44823 -1.38821,0.55202 -4.01369,0.94524 -5.83441,0.87382 -1.82071,-0.0714 -3.87516,0.50191 -4.56545,1.27405 -2.10621,2.356 -3.64449,6.7733 -2.58645,7.42721 1.5564,0.96191 1.10217,4.48578 -0.66567,5.16417 -1.8547,0.71171 -5.3141,-3.12771 -5.3498,-5.93748 -0.0274,-2.15726 -0.84221,-2.18539 -4.88484,-0.16866 -2.98779,1.49051 -3.44181,1.45185 -7.90364,-0.67303 -5.26225,-2.50607 -12.56694,-7.7135 -17.75633,-12.65831 -2.61183,-2.48873 -4.29696,-3.25144 -7.1941,-3.25616 -2.08083,-0.003 -5.07227,-0.67839 -6.64764,-1.5 -3.83898,-2.00217 -5.3573,-1.88253 -6.64501,0.52358 -0.82578,1.54299 -0.71647,2.53598 0.46482,4.2225 2.14511,3.06258 2.12738,13.32243 -0.0245,14.14817 -2.03018,0.77905 -1.05607,4.20274 2.18129,7.66663 1.31321,1.40509 2.38766,3.27759 2.38766,4.16111 0,2.4478 -5.76403,6.78417 -9.01771,6.78417 -1.57534,0 -3.14237,0.45 -3.48229,1 -0.60068,0.97193 -2.34222,0.99791 -16.97748,0.25326 z m 4.03103,-111.33993 C 187.00063,232.8131 192,228.4881 192,225.14578 c 0,-3.05113 2.85554,-5.88299 9.73768,-9.65693 3.71928,-2.03952 8.82232,-5.6294 11.34009,-7.97751 4.55661,-4.24955 9.96768,-6.46928 19.42657,-7.96916 3.19345,-0.50639 4.93013,-1.68871 8.57607,-5.83857 9.1547,-10.42001 10.68099,-14.49998 8.22888,-21.99687 -1.41034,-4.31184 -1.48145,-6.38961 -0.51696,-15.1032 1.05781,-9.55664 0.96713,-10.81873 -1.6751,-23.31617 C 244.30863,120.00302 240.65958,112 237.41105,112 c -3.48184,0 -6.39857,-2.54728 -8.45022,-7.37986 -2.95578,-6.962227 -5.35785,-9.300887 -11.35893,-11.059091 -2.81374,-0.824372 -7.24001,-3.269666 -9.86924,-5.452258 -2.62204,-2.176624 -6.22204,-4.260711 -8,-4.631306 -1.77796,-0.370594 -4.14843,-1.251629 -5.26771,-1.957857 -2.0909,-1.319295 -4.38717,-1.701555 -20.06843,-3.340796 -5.00691,-0.523397 -10.03983,-1.452752 -11.18426,-2.065232 -4.00192,-2.141762 -17.27432,-0.903387 -24.06809,2.245661 -1.29571,0.600586 -4.97485,4.252946 -8.17589,8.116357 -3.20103,3.86341 -6.98466,8.296336 -8.40808,9.850946 -3.57906,3.908936 -5.03247,7.116316 -6.64921,14.673436 -2.017,9.42804 -1.60825,19.31768 1.09527,26.5 2.97908,7.91439 3.72442,16.6487 1.57307,18.43416 -2.11606,1.75618 -1.98936,5.46856 0.42067,12.32552 2.53781,7.22051 2.50679,8.10971 -0.50885,14.58763 -1.85529,3.98538 -2.59457,7.51988 -2.9026,13.87739 -0.38753,7.99842 -0.23524,8.8182 2.44343,13.15269 3.48045,5.63188 16.08713,16.90278 19.78207,17.686 1.47727,0.31313 4.71095,1.45767 7.18595,2.54341 6.80988,2.98738 23.25875,8.70864 25.31952,8.80666 1.00073,0.0476 5.15605,-1.30246 9.23403,-3.00013 z"
         id="path24" />
      <path
         style="fill:#e3e3e3"
         d="m 173.5,338.33987 c -1.1,-0.23547 -5.73624,-1.58086 -10.30276,-2.98975 -5.66067,-1.74647 -9.32019,-2.35015 -11.5,-1.89707 -1.75848,0.36551 -4.32224,0.65567 -5.69724,0.64479 -1.375,-0.0109 -5.35499,-0.0361 -8.84443,-0.0561 -4.32991,-0.0248 -9.21955,-0.99958 -15.39921,-3.06995 -4.98013,-1.6685 -11.80014,-3.30761 -15.15557,-3.64246 C 99.919776,326.6626 97.736196,325.70078 91,320.45747 c -2.475,-1.92649 -5.845634,-4.28002 -7.490298,-5.23008 -4.623485,-2.67081 -9.601167,-8.2262 -11.989347,-13.38084 -1.193009,-2.57499 -4.498138,-7.23013 -7.344731,-10.34476 -2.933027,-3.2092 -5.17007,-6.60296 -5.162807,-7.83237 C 59.019867,282.47624 58.238713,278.125 57.27692,274 55.714806,267.3003 54.966487,265.92805 50.264103,261.13997 47.368846,258.19195 45,255.68613 45,255.57147 c 0,-0.11466 0.687699,-2.5242 1.528221,-5.35455 1.324041,-4.45853 1.34126,-5.58502 0.128878,-8.4315 -0.769638,-1.80698 -2.605036,-4.39769 -4.078662,-5.75712 -2.261633,-2.08638 -2.58521,-3.02873 -2.075638,-6.04487 0.911613,-5.39579 -0.739345,-8.58135 -5.190781,-10.01573 -5.172658,-1.66678 -6.022748,-2.48008 -8.859155,-8.47576 -3.265638,-6.90299 -3.118727,-8.23013 1.332853,-12.04052 2.082144,-1.78223 4.660876,-4.8655 5.730514,-6.8517 1.069639,-1.9862 2.703958,-3.85222 3.631822,-4.14671 C 40.519149,187.38307 44,183.83168 44,181.46222 c 0,-1.31595 -1.2521,-3.87079 -2.782446,-5.67742 -1.530345,-1.80664 -4.884526,-6.47372 -7.453735,-10.3713 -2.690142,-4.08103 -6.404301,-8.23335 -8.757504,-9.79062 -7.527653,-4.98157 -7.754164,-9.90825 -0.764342,-16.6247 l 4.216318,-4.05141 0.05834,-10.6754 0.05834,-10.67541 4.477208,-2.63051 c 2.462464,-1.44679 5.796464,-2.96163 7.408889,-3.36632 1.612426,-0.4047 4.327148,-2.21543 6.032716,-4.02386 1.705569,-1.80843 4.090731,-3.817725 5.300359,-4.465098 1.209629,-0.647374 3.052911,-2.849497 4.096182,-4.893608 1.043271,-2.04411 2.844741,-4.573808 4.003266,-5.621552 C 61.052116,87.547269 62,85.926792 62,84.993952 c 0,-0.93284 1.125,-3.811908 2.5,-6.397927 2.956203,-5.559854 3.047028,-6.475543 0.804907,-8.115022 -1.359154,-0.993837 -1.73086,-3.096609 -1.875568,-10.610242 -0.09926,-5.153919 0.269556,-9.934377 0.819596,-10.623242 0.55004,-0.688865 0.7305,-2.600343 0.401023,-4.247729 -0.943292,-4.71646 1.068834,-13.096834 3.838704,-15.987955 1.353472,-1.412721 3.000844,-4.130815 3.660825,-6.040209 0.659981,-1.909394 2.808839,-5.413932 4.775239,-7.787861 3.10907,-3.753411 3.957908,-4.240851 6.509657,-3.738123 1.61391,0.317961 3.721622,1.290553 4.683804,2.161315 2.612284,2.364085 8.802516,4.299641 13.909303,4.34915 2.49013,0.02414 5.41513,0.661844 6.5,1.417118 1.08488,0.755274 4.91545,1.55808 8.51238,1.784013 5.57773,0.350353 7.14569,0.897639 10.65775,3.720005 2.26483,1.820068 4.34226,4.167262 4.61651,5.215986 C 132.61336,31.23749 133.6895,32 135.00517,32 c 1.20583,0 3.47503,1.373046 5.04267,3.051213 2.14231,2.293349 4.29596,3.320069 8.67072,4.133642 5.43315,1.010401 6.16631,0.907178 11.01771,-1.551213 C 163.50499,35.723889 166.46804,35 170.51642,35 c 3.19179,0 6.92537,-0.694216 8.71737,-1.620899 2.21563,-1.145744 4.63277,-1.466261 8.24562,-1.093382 3.19344,0.329593 7.15775,-0.06339 10.56587,-1.047394 3.00009,-0.866202 7.25472,-1.519847 9.45472,-1.452546 2.2,0.0673 5.8,0.188226 8,0.268723 2.31647,0.08476 4.84176,0.919703 6,1.9838 1.1,1.010594 4.25,2.358914 7,2.996268 2.75,0.637353 6.8,1.991285 9,3.008737 2.2,1.017452 5.64255,1.828938 7.6501,1.803303 5.70094,-0.0728 14.50603,2.912571 18.22746,6.18003 1.86256,1.635348 3.77706,3.002727 4.25446,3.038621 2.18223,0.164075 10.41525,11.689881 13.35627,18.698101 2.60231,6.201103 4.49486,8.927493 9.53544,13.736638 3.4588,3.3 7.24023,7.912798 8.40316,10.250663 1.16294,2.337864 4.3851,7.597299 7.16036,11.687627 4.15368,6.12194 5.20926,8.59035 5.96966,13.95971 0.59108,4.17382 0.56886,7.4561 -0.0617,9.11463 -0.8388,2.2062 -0.59241,2.95616 1.6557,5.03964 1.45263,1.34625 2.96348,2.44773 3.35744,2.44773 1.41864,0 2.03452,11.12492 0.83713,15.12144 -0.91353,3.04908 -0.91908,5.71156 -0.0239,11.46954 1.00151,6.44197 0.94673,7.833 -0.38871,9.87114 -1.28602,1.96272 -1.35899,3.09848 -0.42252,6.57628 0.86007,3.19406 0.843,4.90146 -0.0711,7.10823 -0.98827,2.38591 -0.937,3.21227 0.28724,4.62889 2.16251,2.50233 3.77511,7.9126 3.76268,12.6237 -0.0144,5.44602 -1.9176,11.23269 -7.26889,22.10078 -2.43731,4.95 -4.71977,10.86868 -5.07213,13.15261 -0.94437,6.12131 -7.31487,20.50497 -10.22979,23.09739 -1.39144,1.2375 -3.54561,2.25 -4.78704,2.25 -1.24143,0 -3.51982,1.31795 -5.06309,2.92877 -1.71669,1.79184 -4.65899,3.37331 -7.57946,4.07392 -4.31863,1.03602 -4.92673,1.5463 -6.38115,5.35466 -2.83289,7.41782 -1.99796,9.59052 5.8288,15.16786 l 2.842,2.02521 -1.99016,3.87923 c -1.20854,2.35567 -3.32318,4.50864 -5.38423,5.48182 -2.0695,0.97718 -4.2089,3.16088 -5.48204,5.59557 L 268.33401,310.5 H 261.417 c -6.50969,0 -13.40836,2.19768 -13.42164,4.27568 -0.003,0.39838 -1.42202,2.23675 -3.15439,4.08528 -4.6018,4.91037 -9.01756,4.11455 -16.78569,-3.02514 -13.92279,-12.79644 -17.39962,-14.85361 -25.04869,-14.82076 -3.37855,0.0145 -9.16003,1.63834 -11.7566,3.30205 -0.6875,0.44051 -1.25,2.09781 -1.25,3.68289 0,1.58508 -0.47348,3.17459 -1.05217,3.53224 -0.57869,0.35765 -1.00755,3.19671 -0.95302,6.30902 0.10282,5.86764 -1.20708,17.77719 -2.02672,18.42698 -0.75282,0.59681 -8.61579,2.74283 -9.58411,2.61576 -0.48619,-0.0638 -1.78398,-0.30866 -2.88398,-0.54413 z m 27.78212,-86.70185 c 4.30676,-1.82286 6.32439,-4.35675 7.15483,-8.98555 0.53676,-2.99188 2.24907,-5.39094 7.69952,-10.78759 3.9784,-3.93913 7.87485,-8.89689 9.01107,-11.46552 1.81173,-4.09572 2.25909,-4.46896 4.71086,-3.93046 6.28676,1.3808 16.67387,-4.81556 25.93715,-15.47263 6.17625,-7.10555 6.20436,-7.16608 6.18472,-13.31713 -0.0136,-4.25885 -0.94591,-8.80575 -3,-14.63109 -3.12698,-8.86802 -3.58135,-13.73059 -1.94558,-20.82121 0.662,-2.86959 0.6403,-6.1542 -0.066,-10 C 256.39014,139.07708 255.4864,130.875 254.96033,124 c -1.09835,-14.35425 -2.9379,-20.41851 -6.80117,-22.42081 -4.00677,-2.076667 -11.76852,-9.211045 -14.06688,-12.929879 -1.33985,-2.167914 -4.3508,-4.463981 -8.81368,-6.721062 -3.72823,-1.885537 -8.2288,-4.641201 -10.00127,-6.123698 -3.77373,-3.156368 -8.98341,-4.791182 -15.29293,-4.798974 -2.48358,-0.0031 -6.05899,-0.833306 -7.94536,-1.844974 -2.37457,-1.273498 -4.2157,-1.602747 -5.9844,-1.07019 -1.40505,0.423065 -5.63624,1.217978 -9.40264,1.766474 -5.7529,0.837788 -7.75184,0.70893 -12.5,-0.805797 -12.3944,-3.953978 -28.57571,0.308573 -38.13759,10.046372 -2.48293,2.528603 -7.66441,6.443779 -11.51441,8.70039 -11.6893,6.851482 -11.44042,6.578945 -11.39162,12.474278 0.0238,2.87533 -0.36822,7.55605 -0.87115,10.4016 -0.50294,2.84554 -0.72268,7.57054 -0.48832,10.5 0.40339,5.04229 0.23483,5.51001 -3.161402,8.77244 C 95.183319,133.21624 95,133.72863 95,139.97366 c 0,3.93683 0.549283,7.37392 1.366991,8.55383 0.751846,1.08488 2.130117,4.67251 3.062827,7.97251 0.932712,3.3 2.990612,7.83604 4.573122,10.08008 5.30645,7.52473 6.41086,11.63732 5.02334,18.70598 -0.71353,3.63508 -2.66621,8.5599 -4.70512,11.86669 -4.30233,6.97772 -5.179064,12.26461 -2.80826,16.9345 1.63875,3.22794 9.10506,10.91275 10.60246,10.91275 0.38248,0 2.54766,1.5475 4.81151,3.4389 2.26385,1.89139 6.60908,4.92889 9.65607,6.75 3.04699,1.8211 7.19982,4.3162 9.22852,5.54465 2.54519,1.54121 5.29761,2.23865 8.87952,2.25 2.85504,0.009 5.48626,0.49421 5.84714,1.07813 1.46019,2.36264 7.80865,3.83197 31.96188,7.39748 11.97062,1.76711 14.96234,1.79559 18.78212,0.17886 z"
         id="path22" />
      <path
         style="fill:#d7d7d7"
         d="m 170.5,330.76784 c -1.65,-0.55602 -10.2,-1.39583 -19,-1.86624 -8.8,-0.47041 -19.6,-1.06501 -24,-1.32132 C 109.58495,326.53665 94.556588,320.80351 88.895368,312.85306 87.440135,310.80937 86.019178,310 83.886451,310 c -3.693845,0 -6.856706,-3.03438 -10.351488,-9.931 -1.444703,-2.85099 -4.605085,-8.07329 -7.02307,-11.60512 -4.21809,-6.16115 -6.825221,-12.86517 -7.998717,-20.56802 -0.391584,-2.57037 -1.820815,-4.79611 -4.982849,-7.75981 -4.330563,-4.05893 -4.420268,-4.2697 -3.853595,-9.05437 0.814924,-6.88076 -0.242142,-11.26058 -3.79554,-15.72632 -2.742042,-3.44607 -3.002549,-4.34851 -2.453896,-8.50067 0.553525,-4.18904 0.288089,-5.07303 -2.702426,-9 -1.823932,-2.39508 -4.475146,-4.91393 -5.891588,-5.59744 -1.92246,-0.9277 -2.741392,-2.28114 -3.230315,-5.33869 -0.82295,-5.14645 2.483068,-11.73887 6.913449,-13.78588 3.932588,-1.81701 10.486402,-8.12844 10.472956,-10.08563 C 48.983526,182.19617 47.188309,179.25 45,176.5 c -2.188309,-2.75 -3.983526,-5.81287 -3.989372,-6.80637 -0.0058,-0.9935 -1.32509,-3.0185 -2.931654,-4.5 -1.742763,-1.60709 -3.199712,-4.20762 -3.611914,-6.44695 -0.379988,-2.06433 -1.959897,-5.35016 -3.510908,-7.30186 -1.551011,-1.95169 -3.121609,-4.92165 -3.490218,-6.59992 -0.575201,-2.61887 -0.142391,-3.59191 3.05347,-6.86477 l 3.723667,-3.81338 -1.07955,-6.12871 C 32.53923,124.49389 32.44047,120.97167 32.929333,119.68587 33.867905,117.21724 42.368156,109 43.983241,109 45.516628,109 56.332232,97.930759 57.99008,94.664686 58.781638,93.105264 60.682689,91.181208 62.214638,90.389006 63.746587,89.596805 65,88.345882 65,87.609179 c 0,-0.736704 0.83594,-2.412648 1.857644,-3.72432 1.021705,-1.311673 2.447872,-4.033 3.169261,-6.047395 1.138967,-3.18043 1.079169,-4.271191 -0.45428,-8.286469 -1.604221,-4.200594 -1.62703,-4.918146 -0.249126,-7.837464 2.389321,-5.062173 3.647225,-16.855154 2.592372,-24.303758 -0.899245,-6.349817 -0.829667,-6.709644 2.349412,-12.150253 3.466081,-5.931775 6.790324,-7.964348 11.21098,-6.854834 3.102552,0.778691 4.205493,4.1845 2.106293,6.504091 -1.615827,1.785468 -1.368601,6.49557 0.537282,10.236218 0.550428,1.080315 0.330442,2.066343 -0.640851,2.872445 -2.726866,2.263097 -1.529118,3.088155 3.771013,2.59763 2.8875,-0.267237 5.991559,-0.514952 6.89791,-0.550478 C 99.05426,40.029067 103.31397,37.075 107.61394,33.5 112.31639,29.590367 116.36205,27 117.76569,27 120.3939,27 126,29.625361 126,30.85616 126,32.102461 134.62581,38 136.44866,38 c 0.89194,0 2.61837,0.646763 3.83652,1.437251 1.21815,0.790488 5.24793,1.960919 8.95508,2.600958 6.65392,1.148801 6.81063,1.123988 12.23485,-1.937251 C 164.51653,38.384483 168.43044,37 170.24145,37 c 1.79947,0 4.84378,-0.510303 6.76515,-1.134007 3.42523,-1.111877 17.61925,-2.097934 31.4934,-2.187841 5.42661,-0.03517 7.94669,0.46367 11.21184,2.219321 2.31651,1.245575 6.60292,2.589159 9.52534,2.98574 2.92243,0.396582 5.91487,1.092724 6.64987,1.546983 0.73501,0.454258 4.5257,1.176023 8.42375,1.603922 6.25712,0.686858 7.3862,1.141493 9.63829,3.880954 1.403,1.706627 3.13386,3.098901 3.84636,3.093943 0.7125,-0.005 2.4184,1.113922 3.79087,2.486401 1.37248,1.372479 4.83953,3.997176 7.70455,5.832661 2.86502,1.835484 5.71981,4.425047 6.34397,5.754584 0.62416,1.329536 2.53889,5.402074 4.25494,9.050084 2.26505,4.815087 4.63866,7.930096 8.66144,11.366859 3.72347,3.181062 6.75636,7.02262 9.24506,11.710082 2.03704,3.836782 4.45419,8.324604 5.37143,9.972944 0.93793,1.68552 1.97323,6.66472 2.36589,11.37854 0.62012,7.44445 0.45771,8.84293 -1.45264,12.508 -2.4043,4.61275 -2.63364,3.88045 4.34396,13.87026 2.90069,4.15292 2.92393,4.29948 2.80575,17.69541 -0.0655,7.4293 -0.64772,15.86966 -1.29374,18.75637 -1.02124,4.56339 -0.94319,5.69634 0.59792,8.67867 0.97488,1.88657 2.45776,3.93215 3.2953,4.54574 2.54277,1.86288 2.78619,12.25094 0.39748,16.96293 -1.09338,2.1568 -2.32123,5.92152 -2.72857,8.36605 -0.40734,2.44453 -2.93626,9.06518 -5.61984,14.71255 C 303.19565,238.30452 301,243.73749 301,244.73041 c 0,0.99293 -1.10871,3.43693 -2.46379,5.43112 -2.89321,4.25773 -9.60992,7.02532 -14.9477,6.15912 -3.26854,-0.53041 -3.62076,-0.27281 -7.94713,5.81217 -2.48985,3.50195 -5.60645,7.71718 -6.92577,9.36718 -1.31932,1.65 -2.94398,5.25 -3.61035,8 -2.74151,11.31372 -3.1023,12.17762 -5.55183,13.2937 -1.35148,0.61578 -3.19848,2.6016 -4.10444,4.41295 -0.90597,1.81134 -3.74011,5.36861 -6.2981,7.90504 -2.55799,2.53643 -5.69762,6.02393 -6.97695,7.75 -3.53042,4.76323 -7.40732,4.34836 -12.72476,-1.36169 -2.30483,-2.475 -4.72021,-4.5 -5.36751,-4.5 -0.6473,0 -3.3199,-2.143 -5.93912,-4.76221 -3.64939,-3.6494 -6.03345,-5.08933 -10.20238,-6.1621 -8.13344,-2.09293 -11.12232,-2.09744 -14.50508,-0.0219 -2.06936,1.2697 -4.18069,1.7189 -6.5,1.38293 -2.91123,-0.42171 -4.00697,0.0428 -7.18509,3.0463 -5.05695,4.779 -5.10332,8.50763 -0.16211,13.03361 3.16771,2.9015 3.45102,3.54214 2.41914,5.47022 -0.64281,1.20111 -1.29629,3.97435 -1.45216,6.16276 -0.15588,2.18841 -0.68199,4.3419 -1.16914,4.78554 -1.6071,1.46356 -5.83725,1.85997 -8.88573,0.83268 z M 106.73967,276.75 c 1.97693,-2.50992 2.31736,-6.73903 0.78155,-9.70897 -2.15207,-4.16164 -1.95271,-4.86763 1.89239,-6.70122 3.37689,-1.61033 3.45463,-1.59402 7.22784,1.51617 2.43898,2.01042 4.91829,3.14402 6.8763,3.14402 5.51462,0 14.71666,-2.96089 17.05989,-5.48927 3.71034,-4.00353 6.74114,-4.15636 12.25524,-0.61797 5.48624,3.52051 9.69419,3.93451 14.46678,1.42332 5.06364,-2.66433 12.74075,-1.95803 24.2008,2.22649 16.43101,5.99962 20.1461,5.73462 25.23094,-1.79969 2.32375,-3.44314 3.08594,-5.87857 3.51583,-11.23407 0.51306,-6.39159 0.80029,-7.05949 4.40082,-10.23317 2.11857,-1.8674 8.31072,-5.58418 13.76034,-8.25951 7.41517,-3.64026 10.24131,-5.57532 11.2315,-7.69018 0.72772,-1.55427 3.4988,-5.52595 6.15797,-8.82595 3.84981,-4.77756 6.45126,-6.81496 12.7685,-10 7.35509,-3.70831 7.95732,-4.24817 8.25843,-7.40321 0.21584,-2.26168 -0.36269,-4.33307 -1.72477,-6.17538 -2.42676,-3.28236 -9.64528,-19.36494 -11.80846,-26.30877 -1.45291,-4.66388 -1.40631,-5.28119 1.01921,-13.5 1.39796,-4.73695 2.76895,-11.81799 3.04666,-15.73564 0.46958,-6.62451 0.26478,-7.60028 -2.92626,-13.94267 C 262.24455,117.08829 261,113.17486 261,110.64519 c 0,-5.42731 -4.2002,-12.413067 -8.5582,-14.233952 -3.91149,-1.634329 -10.43045,-7.093363 -10.46659,-8.76483 -0.0591,-2.730688 -7.06459,-10.511263 -11.31827,-12.570436 -2.48199,-1.201508 -6.45765,-3.73076 -8.83482,-5.62056 -2.37717,-1.8898 -4.69669,-3.440368 -5.15451,-3.445706 -0.45781,-0.0053 -3.86992,-1.342889 -7.58247,-2.972336 -4.67431,-2.051571 -9.19155,-3.166241 -14.68938,-3.624742 -7.47109,-0.623066 -8.1674,-0.507322 -11.80708,1.962629 -4.54738,3.085935 -10.35472,3.456099 -16.16093,1.030109 -2.85574,-1.193204 -5.8444,-1.467692 -11.87212,-1.090372 -11.37813,0.712241 -16.10894,1.982847 -20.88769,5.610038 -2.29237,1.739963 -5.52051,3.778743 -7.17366,4.530621 -1.65314,0.751877 -4.2923,2.811027 -5.8648,4.575887 -2.61945,2.939885 -3.22495,3.15869 -7.22412,2.610543 -3.72087,-0.510002 -4.70004,-0.250978 -6.63519,1.755223 -1.24859,1.294435 -3.50682,2.642942 -5.01827,2.996682 -1.70536,0.39912 -3.784897,2.209857 -5.480498,4.772082 -2.495304,3.770659 -2.70849,4.834447 -2.456965,12.26014 C 94.223526,112.50367 90.995224,123 86.871533,123 c -0.410415,0 -2.17077,2.89369 -3.9119,6.43043 l -3.165691,6.43043 3.011604,3.81957 c 1.863339,2.36324 3.833209,6.8669 5.166464,11.81195 1.262338,4.68201 3.801406,10.5995 6.130199,14.28688 5.909201,9.35656 6.258251,10.70792 4.298003,16.63995 -0.923424,2.79443 -1.827113,5.64329 -2.008198,6.33079 -0.181084,0.6875 -1.638267,1.25 -3.238184,1.25 -3.691377,0 -4.808419,1.39373 -5.61033,7 -0.455516,3.18458 -0.0067,6.83853 1.535499,12.5 3.26585,11.98933 3.404854,14.00092 1.188554,17.20016 -1.066792,1.53991 -2.248384,3.33551 -2.625761,3.99023 -0.849534,1.47386 2.917141,5.1879 6.608208,6.51587 3.374446,1.21405 3.688745,4.78486 0.75,8.52087 -1.1,1.39842 -2,3.2919 -2,4.20773 0,0.91583 -0.401064,2.09264 -0.891253,2.61514 -1.647448,1.75604 -1.881379,13.7142 -0.341366,17.45 1.822179,4.42028 1.285185,3.98032 7.462965,6.11437 6.369654,2.20032 6.282694,2.19296 7.509324,0.63563 z M 105,247.37756 c 0,-1.3288 0.27149,-1.39713 1.5,-0.37756 0.825,0.68469 1.5,1.41479 1.5,1.62244 0,0.20766 -0.675,0.37756 -1.5,0.37756 -0.825,0 -1.5,-0.7301 -1.5,-1.62244 z m 0.1149,-219.770482 c -1.3118,-0.727129 -1.93445,-1.600571 -1.38365,-1.940984 0.5508,-0.340412 1.80634,0.270457 2.79009,1.357487 2.07927,2.297565 1.85429,2.390904 -1.40644,0.583497 z"
         id="path20" />
      <path
         style="fill:#c6c6c6"
         d="m 138.5,321.20149 c -6.23794,-1.08964 -9.58774,-1.15995 -15.20855,-0.3192 -6.38757,0.95544 -7.97743,0.84076 -13.95949,-1.00691 C 103.1543,317.9673 92,310.81161 92,308.75662 c 0,-0.42335 -3.067555,-2.73599 -6.816789,-5.13918 -5.773369,-3.70064 -7.09222,-5.09066 -8.61621,-9.08117 -0.989682,-2.59145 -4.003834,-7.36059 -6.698116,-10.5981 -5.614482,-6.74648 -6.358855,-8.36829 -7.31527,-15.93817 -0.398306,-3.15253 -2.35751,-8.9145 -4.59032,-13.5 -2.142483,-4.4 -4.409172,-10.25 -5.037088,-13 -0.627915,-2.75 -1.718491,-6.35 -2.423501,-8 -0.705011,-1.65 -1.850159,-5.7 -2.544773,-9 -0.694615,-3.3 -2.319311,-8.17447 -3.610435,-10.83216 -2.475991,-5.09666 -3.045457,-11.49517 -1.311431,-14.73523 0.569836,-1.06475 2.491855,-2.54418 4.271151,-3.28761 2.669518,-1.1154 3.521314,-2.29517 4.87233,-6.74835 0.900485,-2.96816 1.905987,-7.42165 2.234449,-9.89665 0.571505,-4.30635 0.446346,-4.59722 -2.908396,-6.75919 C 49.120856,170.70395 48,169.22437 48,167.61325 48,166.31065 47.325,164.68469 46.5,164 45.675,163.31531 45,161.94474 45,160.95428 c 0,-0.99046 -1.05981,-3.07286 -2.355133,-4.62755 -3.463514,-4.15705 -5.001126,-9.76164 -4.168819,-15.19531 0.705382,-4.60504 0.781782,-6.6248 0.568378,-15.02579 -0.08065,-3.17484 0.431059,-4.89996 1.843849,-6.21617 1.075512,-1.00199 2.230596,-2.68863 2.566854,-3.74808 0.336258,-1.05946 1.913741,-2.46574 3.505518,-3.12508 1.591777,-0.65933 5.064313,-3.90983 7.716746,-7.22332 2.652434,-3.31349 6.711382,-7.994991 9.019885,-10.403336 2.308504,-2.408346 4.558504,-4.960169 5,-5.670718 0.441497,-0.71055 2.093503,-2.208772 3.671124,-3.329383 C 75.86886,83.903106 77.964859,78.253284 77.984944,71.25 78.000329,65.885414 80.251798,62 83.345012,62 85.080642,62 88,58.775433 88,56.858351 c 0,-2.017423 5.031483,-6.637481 7.5,-6.886723 1.1,-0.111065 3.923638,-0.150117 6.27475,-0.08678 3.54175,0.09541 4.4317,0.527951 5.19003,2.522528 1.54952,4.075533 9.0056,4.574472 13.21356,0.884213 0.99491,-0.872509 2.50912,-1.208171 3.71856,-0.824309 1.34969,0.428375 3.31406,-0.218042 5.8038,-1.909867 C 131.77066,49.150835 134.45825,48 135.67312,48 c 1.21486,0 2.48696,-0.45 2.82688,-1 0.33992,-0.55 4.30398,-1.009442 8.80902,-1.020982 5.88751,-0.01508 10.58135,-0.745482 16.69098,-2.597254 11.40561,-3.456937 16.54241,-4.570964 22.5,-4.879616 2.75,-0.142472 8.61719,-0.596509 13.0382,-1.00897 6.97375,-0.650621 8.56284,-0.486722 12,1.23768 2.17899,1.093186 7.22831,2.775411 11.22071,3.738278 3.99239,0.962867 7.50645,2.151212 7.80901,2.640766 0.30256,0.489554 2.21106,0.895051 4.2411,0.901104 7.76013,0.02314 10.69258,1.047763 13.1145,4.582328 1.56139,2.278696 3.59788,3.739249 6.18515,4.435929 2.12153,0.571266 4.33113,1.923989 4.91023,3.006051 0.5791,1.082061 3.17425,3.043138 5.76701,4.357949 5.74522,2.913465 7.44403,4.784622 9.62974,10.606737 1.02736,2.73659 4.31046,7.243082 8.37807,11.5 9.48069,9.921929 10.19205,11.136947 10.19969,17.42126 0.004,3.68201 0.54952,6.02118 1.6989,7.29124 2.21602,2.44867 2.16359,9.7536 -0.1169,16.2875 -1.92625,5.51893 -1.56253,12.20173 0.99757,18.3289 0.80276,1.92127 1.18351,4.36298 0.84611,5.42601 -0.41925,1.32097 0.2856,2.87119 2.22665,4.89721 2.81443,2.93763 2.8426,3.0926 3.1187,17.15615 0.15323,7.80545 0.26404,15.71973 0.24624,17.58728 -0.0205,2.15092 1.13137,5.20909 3.14251,8.34318 l 3.17489,4.94763 -1.66899,4.65682 c -0.91794,2.56125 -1.66676,6.66407 -1.66404,9.11737 0.008,7.47657 -3.75957,15.5748 -9.49505,20.40764 -8.16566,6.88056 -14.97727,11.35809 -18.43388,12.11729 -1.7852,0.39209 -5.90043,2.35576 -9.14495,4.36371 -5.86273,3.62827 -5.89922,3.68033 -5.91016,8.43148 -0.009,3.69754 -0.88067,6.30304 -3.84949,11.5 -6.79077,11.88738 -12.63816,19.65062 -16.01821,21.26647 -1.77998,0.85093 -4.57818,2.81364 -6.21821,4.36157 -2.86853,2.70743 -3.16138,2.76991 -7.70349,1.64347 -2.59689,-0.64402 -7.82506,-3.0357 -11.61816,-5.31484 -13.06234,-7.84871 -18.95033,-8.88944 -35.29487,-6.23857 -12.2035,1.97925 -13.79957,2.83879 -17.31149,9.32285 -3.20531,5.91798 -3.29465,10.55416 -0.31715,16.45775 0.77099,1.52865 1.12987,3.21935 0.79751,3.75711 -1.07563,1.74041 -6.66022,4.14899 -8.50277,3.66715 -0.98544,-0.2577 -3.52037,-0.16168 -5.63319,0.21338 -2.15084,0.3818 -7.3623,0.0669 -11.84149,-0.71552 z M 112.72713,291 c 1.39842,-1.1 3.433,-2 4.52127,-2 1.77557,0 1.91008,-0.4575 1.31036,-4.4567 -1.12435,-7.49772 4.51341,-15.90497 11.44124,-17.06163 8.15345,-1.36129 11.98568,-2.81086 13.48649,-5.10139 1.98356,-3.02729 4.22119,-3.00235 9.66144,0.10767 5.2833,3.02031 8.74647,3.12876 16.35207,0.51205 3.19721,-1.1 6.75515,-1.99325 7.90655,-1.98499 3.30697,0.0237 17.27996,4.62812 20.97486,6.9117 7.07131,4.37031 16.51717,1.93736 22.34155,-5.75445 2.84098,-3.75187 3.27704,-5.11059 3.27704,-10.21104 0,-4.79996 0.41431,-6.27768 2.25,-8.02502 3.70526,-3.52694 16.29893,-11.77191 20.62438,-13.50261 3.10114,-1.24084 4.71873,-2.82281 6.97594,-6.82236 4.7968,-8.49946 7.86785,-11.3893 17.78492,-16.73544 l 9.41765,-5.07692 -0.6552,-3.64943 C 280.03733,196.14225 276.58274,187.975 272.72081,180 c -8.45189,-17.4534 -8.97418,-20.42193 -5.22622,-29.70378 1.9578,-4.84852 2.88967,-9.24393 3.25162,-15.33712 0.49945,-8.40777 0.45579,-8.61405 -2.80116,-13.23472 -2.44537,-3.46928 -3.49253,-6.25442 -4.01384,-10.67572 -0.89908,-7.62516 -4.95002,-14.302455 -10.08047,-16.615965 -3.73334,-1.683506 -8.1504,-5.671497 -10.22673,-9.233321 -0.61821,-1.060496 -2.15206,-3.801745 -3.40856,-6.091665 -1.74823,-3.186065 -3.50894,-4.708441 -7.5,-6.484788 -2.8685,-1.276714 -7.17053,-3.964163 -9.56006,-5.972109 -2.38954,-2.007947 -5.08954,-3.655208 -6,-3.660581 -0.91047,-0.0054 -3.90539,-1.050808 -6.65539,-2.32319 -11.06329,-5.118808 -23.51526,-5.880233 -27.9549,-1.709413 -3.17156,2.979526 -8.45929,3.60035 -14.15,1.661329 -5.58539,-1.903135 -17.00059,-2.111573 -24.56881,-0.44862 -3.04844,0.66983 -8.1636,3.021965 -11.96077,5.5 -3.64897,2.381315 -7.02397,4.342182 -7.5,4.357483 -0.47604,0.0153 -2.6249,1.359125 -4.77525,2.986275 -3.23265,2.446115 -4.54152,2.85743 -7.55789,2.375092 -2.92445,-0.467638 -4.23181,-0.101558 -6.59027,1.845361 -1.61816,1.335799 -4.81312,3.464031 -7.099903,4.729406 -6.039759,3.342052 -7.924268,8.103668 -7.545468,19.065246 0.330623,9.56743 -1.884211,16.87688 -5.73897,18.93988 C 83.030693,121.05394 77,132.84943 77,135.72935 c 0,0.799 1.555847,3.27038 3.457438,5.49196 2.333215,2.72584 3.853339,5.86655 4.674993,9.65896 0.669655,3.09085 3.388808,10.05465 6.042562,15.4751 C 93.828747,171.77583 96,176.77262 96,177.45935 c 0,1.10503 -1.932859,3.72007 -6.312654,8.54065 -0.749564,0.825 -2.173857,1.96782 -3.165095,2.5396 -1.566757,0.90376 -1.802251,2.49944 -1.802251,12.21186 0,8.83314 0.356105,11.71575 1.700855,13.76809 2.515651,3.83937 1.672732,7.51714 -2.340744,10.21298 -2.417216,1.62364 -3.955758,3.81878 -5.247618,7.48715 l -1.82773,5.19002 2.88982,3.04515 c 6.574989,6.9284 8.013458,12.6166 6.560234,25.94139 -0.581177,5.32889 -0.407121,7.60165 0.765836,10 0.834873,1.70707 2.017118,4.34126 2.62721,5.85376 1.018373,2.52468 1.552759,2.75 6.522119,2.75 5.381588,0 5.422108,0.0231 7.013338,4 1.29273,3.23085 2.10051,4 4.20085,4 1.43021,0 3.74454,-0.9 5.14296,-2 z M 122,46.975249 c 0,-2.080218 4.32211,-4.512244 6.08392,-3.423386 1.55783,0.962792 1.01254,3.326144 -1.01818,4.412953 C 124.01371,49.598216 122,49.204848 122,46.975249 Z"
         id="path18" />
    </g>
  </g>
</svg>
