<?xml version="1.0" encoding="UTF-8" standalone="no"?>
<svg
   xmlns:dc="http://purl.org/dc/elements/1.1/"
   xmlns:cc="http://creativecommons.org/ns#"
   xmlns:rdf="http://www.w3.org/1999/02/22-rdf-syntax-ns#"
   xmlns:svg="http://www.w3.org/2000/svg"
   xmlns="http://www.w3.org/2000/svg"
   xmlns:sodipodi="http://sodipodi.sourceforge.net/DTD/sodipodi-0.dtd"
   xmlns:inkscape="http://www.inkscape.org/namespaces/inkscape"
   width="64mm"
   height="64mm"
   viewBox="0 0 64 64"
   version="1.1"
   id="svg1464"
   inkscape:version="1.0.1 (3bc2e813f5, 2020-09-07)"
   sodipodi:docname="ship.svg">
  <defs
     id="defs1458" />
  <sodipodi:namedview
     id="base"
     pagecolor="#ffffff"
     bordercolor="#666666"
     borderopacity="1.0"
     inkscape:pageopacity="0.0"
     inkscape:pageshadow="2"
     inkscape:zoom="0.7"
     inkscape:cx="127.28622"
     inkscape:cy="247.26307"
     inkscape:document-units="mm"
     inkscape:current-layer="layer1"
     inkscape:document-rotation="0"
     showgrid="false"
     inkscape:window-width="1848"
     inkscape:window-height="1056"
     inkscape:window-x="72"
     inkscape:window-y="0"
     inkscape:window-maximized="1" />
  <metadata
     id="metadata1461">
    <rdf:RDF>
      <cc:Work
         rdf:about="">
        <dc:format>image/svg+xml</dc:format>
        <dc:type
           rdf:resource="http://purl.org/dc/dcmitype/StillImage" />
        <dc:title></dc:title>
      </cc:Work>
    </rdf:RDF>
  </metadata>
  <g
     inkscape:label="Vrstva 1"
     inkscape:groupmode="layer"
     id="layer1">
    <g
       id="g4029"
       transform="matrix(-0.52007563,0,0,-0.52007563,83.149435,609.30995)">
      <path
         stroke="none"
         fill="#eeeeee"
         d="m 87.75,1086.65 q -0.35,0.1 -0.65,0.35 l -5.3,4.3 -2.95,-12.2 -9.85,-7.35 0.85,-1.2 16.1,7.3 1.8,8.8 m -7.6,26.5 2.1,4.25 -4,2.4 7.15,26 -2.6,0.9 -8.1,-29.2 5.45,-4.35 m 34.35,4.25 2.1,-4.25 5.4,4.35 -8.1,29.2 -2.6,-0.9 7.15,-26 -3.95,-2.4 m 0.45,-26.1 -5.35,-4.3 q -0.3,-0.25 -0.65,-0.35 l 1.8,-8.8 16.1,-7.3 0.85,1.2 -9.85,7.35 -2.9,12.2 m -26.6,-2.75 h 20 v 24.8 q -0.05,-1.4 -1.05,-2.4 -1.05,-1.1 -2.6,-1.1 H 92.05 q -1.55,0 -2.6,1.1 -1.05,1.05 -1.1,2.5 v -24.9"
         id="path2066" />
      <path
         stroke="none"
         fill="#a1a1a1"
         d="m 88.35,1088.55 -7.9,6.35 v 14.35 L 87.8,1124 h 21.15 l 7.3,-14.75 v -14.35 l -7.9,-6.35 v -2 l 0.6,0.1 q 0.35,0.1 0.65,0.35 l 5.35,4.3 2.55,2.05 0.55,0.7 0.2,0.85 v 14.35 l -0.2,0.9 -1.45,3 -2.1,4.25 -0.9,1.8 -2.85,5.7 -0.75,0.8 -1.05,0.3 H 87.8 q -0.55,0 -1.05,-0.3 l -0.75,-0.8 -2.85,-5.7 -0.9,-1.8 -2.1,-4.25 -1.5,-3 -0.2,-0.9 v -14.35 l 0.2,-0.85 0.55,-0.7 2.6,-2.05 5.3,-4.3 q 0.3,-0.25 0.65,-0.35 l 0.6,-0.1 v 2"
         id="path2068" />
      <path
         stroke="none"
         fill="#c4c4c4"
         d="m 88.35,1088.55 v -2 l -0.6,0.1 -1.8,-8.8 -16.1,-7.3 -0.85,1.2 -0.15,0.25 -1.6,-1.15 0.95,-1.4 q 0.4,-0.65 1.1,-0.8 l 1.35,0.1 16.1,7.3 q 0.45,0.15 0.75,0.55 l 0.4,0.85 1.85,9.1 h 17.2 l 1.85,-9.1 0.4,-0.85 q 0.3,-0.4 0.75,-0.55 l 16.1,-7.3 1.35,-0.1 q 0.7,0.15 1.1,0.8 l 0.95,1.4 -1.6,1.15 -0.15,-0.25 -0.85,-1.2 -16.1,7.3 -1.8,8.8 -0.6,-0.1 v 2 h -20 m -6.1,28.85 0.9,1.8 -2.6,1.55 6.75,24.55 q 0.25,0.75 -0.15,1.45 -0.35,0.7 -1.1,0.95 l -2.7,0.95 -0.55,-1.95 2.6,-0.9 -7.15,-26 4,-2.4 m 31.35,1.8 0.9,-1.8 3.95,2.4 -7.15,26 2.6,0.9 -0.55,1.95 -2.7,-0.95 q -0.75,-0.25 -1.1,-0.95 -0.4,-0.7 -0.15,-1.45 l 6.75,-24.55 -2.55,-1.55"
         id="path2070" />
      <path
         stroke="none"
         fill="#485d36"
         d="m 67.25,1070.85 1.6,1.15 -14.9,22.15 0.75,2.1 8.7,23.2 11.3,30.1 8.1,-2.85 0.55,1.95 -8,2.8 -1.5,-0.1 q -0.75,-0.35 -1.05,-1.1 l -20.75,-55.4 -0.1,-0.9 q 0.1,-0.5 0.35,-0.9 l 14.95,-22.2 m 60.6,1.15 1.6,-1.15 14.95,22.2 0.35,0.9 -0.1,0.9 -20.75,55.4 q -0.3,0.75 -1.05,1.1 l -1.5,0.1 -8,-2.8 0.55,-1.95 8.1,2.85 11.3,-30.1 8.7,-23.2 0.75,-2.1 -14.9,-22.15"
         id="path2072" />
      <path
         stroke="none"
         fill="#7c9865"
         d="m 127.85,1072 14.9,22.15 -0.75,2.1 -18.55,-6.45 -4.5,18 14.35,11.65 -11.3,30.1 -8.1,-2.85 8.1,-29.2 -5.4,-4.35 1.45,-3 0.2,-0.9 v -14.35 l -0.2,-0.85 -0.55,-0.7 -2.55,-2.05 2.9,-12.2 9.85,-7.35 0.15,0.25 m -58.85,-0.25 9.85,7.35 2.95,12.2 -2.6,2.05 -0.55,0.7 -0.2,0.85 v 14.35 l 0.2,0.9 1.5,3 -5.45,4.35 8.1,29.2 -8.1,2.85 -11.3,-30.1 14.35,-11.65 -4.5,-18 -18.55,6.45 -0.75,-2.1 14.9,-22.15 0.15,-0.25"
         id="path2074" />
      <path
         stroke="none"
         fill="#dbdbdb"
         d="m 108.35,1088.55 7.9,6.35 v 14.35 l -7.3,14.75 H 87.8 l -7.35,-14.75 v -14.35 l 7.9,-6.35 v 24.9 0.1 0.1 q 0.05,1.1 0.65,1.95 l 0.45,0.55 q 1.05,1.1 2.6,1.1 h 12.65 q 1.55,0 2.6,-1.1 l 0.45,-0.5 q 0.55,-0.9 0.6,-2 v -0.1 -0.2 -24.8"
         id="path2076" />
      <path
         stroke="none"
         fill="#65804f"
         d="m 54.7,1096.25 18.55,-6.45 4.5,18 -14.35,11.65 -8.7,-23.2 m 87.3,0 -8.7,23.2 -14.35,-11.65 4.5,-18 18.55,6.45"
         id="path2078" />
      <path
         stroke="none"
         fill="#4a3c55"
         d="m 108.35,1113.35 v 0.2 0.1 q -0.05,1.1 -0.6,2 l -0.45,0.5 q -1.05,1.1 -2.6,1.1 H 92.05 q -1.55,0 -2.6,-1.1 L 89,1115.6 q -0.6,-0.85 -0.65,-1.95 v -0.1 -0.1 q 0.05,-1.45 1.1,-2.5 1.05,-1.1 2.6,-1.1 h 12.65 q 1.55,0 2.6,1.1 1,1 1.05,2.4"
         id="path2080" />
    </g>
  </g>
</svg>
